<svg xmlns="http://www.w3.org/2000/svg" xmlns:xlink="http://www.w3.org/1999/xlink" width="500" zoomAndPan="magnify" viewBox="0 0 375 374.999991" height="500" preserveAspectRatio="xMidYMid meet" version="1.0"><defs><clipPath id="12e0df22f2"><path d="M 219.902344 318.792969 L 252.574219 318.792969 L 252.574219 356.3125 L 219.902344 356.3125 Z M 219.902344 318.792969 " clip-rule="nonzero"/></clipPath><clipPath id="b8470f1e99"><path d="M 252.574219 356.25 L 219.902344 356.25 L 219.902344 318.792969 Z M 252.574219 356.25 " clip-rule="nonzero"/></clipPath><clipPath id="5529b04676"><path d="M 0.902344 0.792969 L 33.574219 0.792969 L 33.574219 38.3125 L 0.902344 38.3125 Z M 0.902344 0.792969 " clip-rule="nonzero"/></clipPath><clipPath id="7b5008a96e"><path d="M 33.574219 38.25 L 0.902344 38.25 L 0.902344 0.792969 Z M 33.574219 38.25 " clip-rule="nonzero"/></clipPath><clipPath id="96de49ad1b"><rect x="0" width="34" y="0" height="39"/></clipPath></defs><path stroke-linecap="butt" transform="matrix(0, -0.75, 0.75, 0, 299.999985, 356.249977)" fill="none" stroke-linejoin="miter" d="M -0.0000311917 25.000022 L 449.999998 25.000022 " stroke="#ffffff" stroke-width="50" stroke-opacity="1" stroke-miterlimit="4"/><path stroke-linecap="butt" transform="matrix(0, -0.75, 0.75, 0, 37.500002, 356.249977)" fill="none" stroke-linejoin="miter" d="M -0.0000311917 24.999999 L 449.999998 24.999999 " stroke="#ffffff" stroke-width="50" stroke-opacity="1" stroke-miterlimit="4"/><path stroke-linecap="butt" transform="matrix(-0.471979, -0.582869, 0.582869, -0.471979, 300.04894, 356.265094)" fill="none" stroke-linejoin="miter" d="M 0.000443848 25.001106 L 538.481585 24.999958 " stroke="#ffffff" stroke-width="50" stroke-opacity="1" stroke-miterlimit="4"/><path stroke-linecap="butt" transform="matrix(-0.75, -0.000000001309, 0.000000001309, -0.75, 220.197105, 356.249977)" fill="none" stroke-linejoin="miter" d="M 0.00239036 24.99997 L 227.554489 24.99997 " stroke="#ffffff" stroke-width="50" stroke-opacity="1" stroke-miterlimit="4"/><g clip-path="url(#12e0df22f2)"><g clip-path="url(#b8470f1e99)"><g transform="matrix(1, 0, 0, 1, 219, 318)"><g clip-path="url(#96de49ad1b)"><g clip-path="url(#5529b04676)"><g clip-path="url(#7b5008a96e)"><path fill="#ffffff" d="M 0.902344 0.792969 L 33.574219 0.792969 L 33.574219 38.1875 L 0.902344 38.1875 Z M 0.902344 0.792969 " fill-opacity="1" fill-rule="nonzero"/></g></g></g></g></g></g></svg>